<?xml version="1.0" standalone="no"?>
<!DOCTYPE svg PUBLIC "-//W3C//DTD SVG 20010904//EN"
 "http://www.w3.org/TR/2001/REC-SVG-20010904/DTD/svg10.dtd">
<svg version="1.0" xmlns="http://www.w3.org/2000/svg"
 width="512.000000pt" height="512.000000pt" viewBox="0 0 512.000000 512.000000"
 preserveAspectRatio="xMidYMid meet">
<metadata>
Created by potrace 1.14, written by Peter Selinger 2001-2017
</metadata>
<g transform="translate(0.000000,512.000000) scale(0.100000,-0.100000)"
fill="#000000" stroke="none">
<path d="M2735 4932 c-27 -2 -57 -10 -66 -18 -13 -12 -19 -12 -25 -3 -4 7 -3
10 4 5 6 -3 13 -3 16 2 2 4 -4 9 -15 9 -10 1 -19 -4 -19 -11 0 -7 -13 -11 -32
-11 -18 1 -39 -3 -47 -9 -8 -6 -12 -7 -9 -1 4 6 -6 10 -22 10 -20 0 -26 -3
-19 -12 7 -7 6 -14 -2 -19 -7 -4 -9 -3 -6 3 4 6 -4 13 -17 15 -19 4 -23 1 -18
-11 5 -14 4 -14 -13 -1 -11 9 -16 10 -11 3 5 -9 0 -13 -16 -13 -13 0 -33 -1
-45 -1 -14 0 -23 -6 -23 -16 0 -10 -6 -13 -17 -9 -9 4 -20 1 -25 -6 -6 -11 -8
-10 -8 0 0 7 -5 10 -10 7 -6 -4 -7 -11 -4 -17 4 -7 2 -8 -5 -4 -6 4 -17 3 -24
-2 -7 -5 -32 -9 -56 -9 -30 0 -46 -5 -49 -14 -3 -11 -1 -11 8 1 9 12 11 12 8
1 -2 -8 -11 -15 -20 -17 -12 -1 -15 3 -10 14 5 14 4 15 -10 2 -9 -8 -14 -18
-12 -21 2 -3 -10 -5 -26 -4 -21 1 -30 -3 -31 -14 0 -10 -2 -12 -6 -3 -2 6 -9
12 -14 12 -6 0 -7 -4 -4 -10 3 -5 -2 -11 -12 -11 -18 -2 -40 -5 -57 -8 -5 0
-3 -8 4 -17 11 -12 11 -15 -1 -12 -8 2 -17 8 -21 13 -5 6 -8 3 -8 -6 0 -9 -7
-22 -16 -29 -12 -11 -15 -11 -12 0 2 7 -3 15 -11 18 -8 2 -11 0 -8 -5 3 -5 -3
-15 -15 -22 -12 -8 -17 -8 -13 -1 4 6 -9 4 -32 -5 -21 -9 -40 -20 -41 -26 -2
-5 -8 -7 -13 -4 -5 4 -6 0 -3 -8 4 -10 -1 -15 -13 -14 -11 1 -17 -4 -15 -13 3
-12 1 -13 -9 -2 -7 6 -20 12 -29 11 -10 0 -9 -3 5 -9 11 -5 14 -9 7 -9 -7 -1
-11 -5 -8 -10 3 -4 -7 -6 -22 -3 -25 5 -26 4 -12 -13 10 -12 10 -16 2 -11 -7
4 -20 2 -30 -6 -15 -12 -16 -11 -3 5 12 15 12 17 -3 11 -15 -6 -20 -17 -17
-37 1 -4 -4 -7 -11 -6 -32 4 -47 -3 -53 -22 -6 -17 -9 -19 -16 -8 -7 11 -10 9
-15 -9 -4 -14 -12 -21 -20 -18 -9 3 -14 -1 -14 -12 0 -15 -2 -15 -10 -2 -9 13
-15 10 -38 -18 -15 -18 -33 -32 -40 -32 -8 0 -10 -5 -6 -12 5 -8 2 -8 -10 1
-15 12 -17 12 -14 0 2 -8 -3 -13 -10 -11 -8 1 -11 -2 -7 -8 3 -5 -1 -10 -11
-10 -12 0 -14 -3 -5 -13 8 -11 6 -13 -12 -13 -14 1 -21 -4 -19 -13 3 -12 1
-12 -13 -1 -9 7 -15 9 -14 4 5 -27 -1 -36 -16 -24 -12 10 -14 8 -10 -8 3 -16
-1 -20 -15 -17 -20 4 -34 -20 -23 -38 4 -7 -1 -6 -10 2 -12 9 -17 10 -17 2 0
-7 -5 -9 -12 -5 -8 5 -7 1 1 -10 13 -16 13 -18 0 -16 -35 5 -42 1 -28 -17 8
-9 10 -14 4 -11 -16 9 -55 -10 -55 -28 0 -10 -5 -14 -16 -10 -8 3 -13 2 -9 -3
3 -5 -2 -17 -11 -26 -14 -13 -19 -14 -25 -3 -6 9 -9 9 -9 1 0 -6 5 -15 10 -18
15 -9 2 -25 -14 -19 -8 3 -17 0 -22 -7 -5 -8 -3 -10 7 -5 8 4 6 1 -3 -7 -10
-8 -14 -18 -10 -23 4 -4 -2 -2 -12 6 -18 14 -19 13 -13 -2 3 -10 2 -18 -4 -18
-6 0 -7 -6 -3 -12 5 -9 2 -8 -9 1 -15 12 -17 12 -12 -2 4 -8 1 -18 -6 -23 -8
-4 -10 -3 -5 4 11 19 2 14 -17 -9 -18 -20 -18 -21 5 -15 15 4 13 1 -7 -8 -16
-8 -34 -12 -39 -8 -5 3 -6 0 -2 -6 4 -6 14 -9 24 -6 14 5 14 4 3 -4 -8 -6 -20
-8 -27 -5 -8 3 -11 -4 -10 -21 3 -22 1 -24 -12 -14 -13 11 -15 9 -10 -14 6
-33 5 -33 -17 -12 -13 13 -16 14 -15 3 1 -8 -1 -25 -5 -37 -6 -18 -10 -20 -16
-10 -6 8 -9 1 -10 -22 0 -29 -2 -31 -9 -15 -7 17 -9 17 -9 3 -1 -10 -9 -18
-18 -19 -11 0 -13 -3 -5 -6 6 -2 12 -9 12 -14 0 -6 -4 -7 -10 -4 -5 3 -10 1
-10 -5 0 -6 -5 -8 -12 -4 -7 5 -8 3 -3 -6 5 -8 1 -18 -10 -27 -11 -7 -15 -13
-11 -13 5 0 -2 -9 -15 -21 -18 -16 -20 -19 -6 -15 11 3 16 2 12 -4 -3 -6 -12
-10 -20 -10 -8 0 -17 -5 -21 -12 -5 -7 -3 -8 7 -3 11 7 12 6 2 -6 -10 -12 -10
-18 0 -29 6 -8 3 -7 -8 2 -20 17 -21 16 -22 -5 -1 -12 -9 -27 -17 -33 -12 -8
-13 -13 -3 -24 9 -10 9 -11 -1 -6 -11 7 -17 -5 -13 -27 1 -5 -3 -6 -9 -2 -6 3
-8 10 -5 15 3 5 1 11 -4 15 -6 3 -8 -3 -6 -15 2 -11 0 -20 -5 -20 -5 0 -6 -7
-3 -17 4 -11 3 -14 -5 -9 -8 5 -14 -3 -18 -23 -4 -17 -13 -31 -21 -31 -8 0
-11 -5 -8 -10 4 -6 11 -7 17 -4 7 4 8 2 4 -4 -4 -6 -12 -9 -19 -6 -9 3 -13 -5
-11 -26 1 -16 -2 -27 -7 -24 -5 3 -7 10 -4 15 3 5 -1 6 -10 2 -13 -5 -14 -7
-3 -14 11 -7 10 -11 -2 -19 -8 -5 -11 -10 -6 -10 6 0 2 -6 -8 -13 -10 -8 -19
-24 -20 -38 -1 -14 -7 -23 -15 -21 -7 1 -10 -2 -6 -8 3 -5 2 -10 -3 -10 -6 0
-8 -9 -5 -20 3 -12 0 -20 -7 -20 -9 0 -9 -4 1 -17 12 -15 12 -16 -3 -11 -19 8
-31 -14 -21 -39 4 -11 3 -14 -5 -9 -8 5 -10 2 -6 -8 4 -11 0 -16 -12 -16 -18
-1 -18 -2 1 -17 17 -14 18 -15 2 -9 -15 5 -17 2 -12 -14 5 -15 2 -20 -12 -20
-14 0 -15 -2 -4 -9 7 -5 10 -14 6 -21 -6 -9 -10 -9 -17 1 -8 11 -9 10 -5 -2 3
-9 0 -22 -6 -28 -6 -6 -8 -11 -4 -11 4 0 1 -13 -7 -29 -12 -22 -12 -31 -3 -41
9 -10 9 -11 -1 -6 -8 5 -12 -3 -13 -26 -1 -18 -1 -37 0 -42 1 -5 -4 -6 -12 -3
-15 6 -17 -19 -2 -42 5 -9 4 -12 -2 -8 -6 4 -14 -1 -17 -10 -4 -9 -1 -20 6
-25 8 -5 9 -8 2 -8 -7 0 -10 -16 -9 -40 2 -31 -1 -38 -10 -30 -9 8 -14 5 -18
-9 -3 -13 -1 -18 8 -15 7 3 16 0 20 -6 3 -6 3 -10 -2 -9 -22 4 -32 -2 -26 -17
3 -9 0 -20 -8 -25 -8 -5 -9 -9 -3 -9 6 0 11 -7 11 -15 0 -8 -3 -15 -6 -15 -4
0 -12 -9 -18 -19 -10 -15 -9 -20 2 -25 9 -3 12 0 9 8 -3 8 -1 16 4 20 10 6 9
-24 -2 -42 -4 -6 -4 -17 0 -24 5 -7 3 -8 -6 -3 -9 6 -10 2 -5 -15 5 -15 4 -20
-4 -16 -7 5 -8 1 -4 -10 4 -12 3 -15 -5 -10 -8 5 -10 2 -6 -8 3 -9 11 -13 18
-9 6 3 0 -6 -14 -21 -14 -15 -19 -26 -11 -24 8 2 14 -6 16 -20 1 -16 -3 -21
-12 -18 -10 4 -11 1 -3 -14 13 -25 13 -33 -2 -24 -7 5 -8 3 -3 -6 4 -7 2 -16
-6 -21 -12 -7 -12 -9 0 -9 11 0 11 -3 1 -15 -13 -15 -2 -21 16 -7 5 4 3 0 -6
-8 -15 -15 -19 -77 -6 -98 3 -6 -2 -15 -11 -21 -10 -6 -12 -11 -6 -11 8 0 11
-11 9 -30 -2 -17 1 -30 8 -30 7 0 7 -3 1 -8 -11 -8 -13 -37 -3 -47 4 -4 3 -18
-2 -31 -7 -17 -6 -24 3 -24 7 0 8 -3 2 -8 -12 -8 -13 -181 -2 -199 5 -7 4 -13
0 -13 -5 0 -9 -9 -9 -20 0 -11 6 -20 13 -20 7 0 13 -4 13 -10 0 -5 -6 -7 -14
-4 -11 4 -13 -3 -9 -33 3 -21 9 -40 14 -43 11 -8 6 -34 -11 -56 -14 -17 -13
-18 1 -6 14 10 18 10 23 -3 3 -9 2 -14 -3 -11 -10 6 -25 -24 -16 -32 3 -3 5 0
5 6 0 7 3 12 8 12 4 0 7 -13 7 -29 0 -17 -4 -27 -10 -23 -5 3 -4 -2 4 -11 11
-14 11 -20 0 -34 -8 -10 -9 -14 -2 -10 6 4 14 3 18 -3 3 -5 2 -10 -4 -10 -5 0
-8 -8 -6 -17 2 -10 4 -25 4 -33 1 -13 2 -13 12 0 8 11 9 9 3 -10 -4 -14 -9
-31 -11 -37 -3 -7 2 -16 11 -19 9 -3 14 -10 11 -14 -3 -5 3 -14 12 -20 15 -10
16 -11 1 -6 -12 4 -16 0 -13 -15 2 -10 7 -24 10 -29 3 -6 0 -10 -7 -10 -7 0
-2 -7 11 -16 15 -11 21 -23 18 -35 -3 -11 -1 -19 5 -19 5 0 6 -9 3 -20 -4 -12
-2 -20 5 -20 6 0 8 5 4 12 -4 7 -3 8 5 4 6 -4 11 -13 10 -19 -1 -7 -1 -27 0
-46 1 -26 4 -32 17 -27 14 6 15 4 4 -9 -7 -9 -9 -15 -4 -14 21 4 26 -2 13 -18
-10 -11 -10 -14 -2 -9 9 5 13 0 13 -16 0 -19 2 -20 11 -8 9 12 10 11 6 -7 -4
-17 -1 -23 11 -23 14 0 14 -2 3 -9 -8 -5 -11 -16 -8 -26 4 -9 11 -14 16 -10
15 9 24 -14 11 -30 -9 -11 -7 -12 12 -8 18 4 20 3 8 -6 -13 -9 -12 -11 5 -11
17 0 17 -2 5 -10 -13 -8 -13 -10 2 -10 12 0 15 -5 11 -17 -4 -10 -2 -14 4 -10
7 4 14 -4 18 -22 3 -15 15 -38 25 -49 11 -12 20 -26 20 -32 0 -5 5 -10 11 -10
5 0 7 -5 4 -10 -4 -6 -3 -10 2 -9 19 3 27 -2 15 -10 -11 -7 -10 -9 3 -14 9 -4
13 -3 10 3 -3 6 -2 10 4 10 5 0 13 -5 16 -10 4 -6 11 -8 16 -5 5 4 6 -2 2 -12
-6 -16 -5 -17 12 -3 11 9 16 10 11 3 -4 -8 -2 -13 4 -13 6 0 18 -16 26 -35 8
-19 17 -35 20 -35 3 0 2 6 -2 12 -6 10 -4 10 8 0 8 -7 24 -10 34 -6 18 5 18 5
2 -6 -10 -6 -18 -16 -18 -23 0 -8 3 -8 9 2 7 11 11 10 20 -5 8 -14 11 -15 11
-4 0 13 2 13 9 0 6 -8 8 -17 6 -20 -2 -4 11 -6 29 -5 27 0 33 -3 31 -16 -3
-12 2 -15 16 -12 10 3 19 1 19 -4 0 -5 13 -9 29 -8 22 1 28 -2 23 -13 -4 -12
0 -14 16 -10 12 4 22 2 22 -3 0 -4 7 -5 17 -2 10 4 14 2 9 -5 -3 -6 3 -14 16
-18 35 -11 78 -13 72 -3 -3 5 2 6 11 2 13 -4 14 -8 4 -14 -8 -4 -10 -11 -6
-15 3 -4 14 -1 24 7 13 11 15 11 9 1 -5 -9 -3 -13 5 -11 28 3 40 -1 33 -13 -5
-10 -4 -10 7 0 11 10 16 8 26 -10 7 -13 12 -17 13 -10 0 6 7 12 16 12 9 0 12
5 8 12 -4 7 -3 8 4 4 6 -4 9 -12 6 -19 -2 -8 7 -12 26 -13 16 -1 30 4 30 10 0
6 6 1 14 -10 10 -14 28 -22 53 -23 21 -1 52 -3 68 -4 17 -1 36 -6 43 -10 7 -5
12 -3 12 4 0 8 5 7 17 -2 9 -8 14 -9 11 -4 -4 6 8 9 30 9 50 -2 52 -3 49 -12
-1 -4 3 -8 8 -10 6 -1 10 3 10 8 0 6 5 9 10 8 6 -1 9 -8 7 -16 -3 -10 1 -11
17 0 12 7 21 17 21 23 1 5 7 -1 15 -15 9 -15 14 -19 15 -10 0 13 1 13 10 0 8
-12 10 -12 11 5 l0 20 9 -20 c5 -11 9 -14 9 -7 1 8 6 10 14 5 18 -11 37 -12
37 -2 0 5 5 9 11 9 5 0 8 -4 5 -8 -2 -4 8 -8 24 -7 16 0 26 4 23 10 -3 5 0 4
8 -2 16 -16 33 -17 23 -1 -5 7 -3 8 7 2 21 -12 159 -12 159 0 0 6 5 4 10 -4 9
-13 10 -13 10 0 0 12 2 12 9 2 4 -8 12 -14 16 -14 4 0 12 6 16 14 5 7 9 8 9 3
0 -12 40 -13 58 -1 7 4 12 3 12 -1 0 -11 51 -10 69 1 8 5 16 3 22 -5 6 -10 9
-8 9 9 0 12 5 22 11 22 6 0 8 -7 5 -17 -4 -10 -4 -14 0 -10 4 4 14 1 22 -6 10
-7 13 -8 9 -1 -4 7 1 18 10 25 15 12 16 12 10 -5 -7 -17 -5 -17 9 -5 9 7 33
14 54 14 21 0 45 7 54 14 13 11 16 11 14 1 -2 -7 3 -15 10 -17 6 -3 12 3 13
14 0 10 3 13 6 6 2 -7 12 -13 21 -13 13 0 14 2 4 9 -20 12 20 21 42 9 11 -6
16 -5 16 3 0 7 7 4 16 -7 8 -10 13 -13 9 -6 -6 12 -3 13 33 16 9 1 22 5 29 9
6 4 14 1 17 -5 4 -7 4 -2 2 11 -4 18 -2 21 7 12 13 -13 31 -15 23 -2 -4 5 5 8
18 7 14 -2 30 0 37 5 8 4 20 3 28 -4 12 -10 14 -9 8 6 -6 15 -4 16 16 6 19
-11 20 -10 9 3 -11 14 -8 15 23 12 19 -1 35 1 35 6 0 5 8 6 17 3 12 -5 15 -2
10 10 -4 12 -2 14 10 10 12 -5 14 -3 8 7 -6 10 -4 11 6 4 19 -12 39 -14 39 -4
0 4 10 6 22 2 16 -4 19 -2 13 9 -7 11 -5 11 10 -1 16 -14 17 -13 11 6 -6 18
-3 20 25 16 25 -4 30 -2 24 9 -8 12 -6 12 8 0 15 -12 17 -11 17 3 0 10 5 14
10 11 6 -4 7 -12 4 -18 -4 -7 4 -2 17 9 14 13 34 20 49 18 14 -1 19 0 13 2 -7
3 -13 10 -13 15 0 5 10 4 23 -2 20 -11 21 -11 9 4 -11 13 -10 15 12 13 18 -2
26 2 26 13 0 14 2 14 10 1 9 -13 12 -13 24 2 7 10 16 15 19 11 4 -3 7 -1 7 5
0 7 -5 12 -12 12 -6 0 -9 2 -6 5 9 10 38 -7 31 -18 -3 -6 -1 -7 6 -3 6 4 9 11
6 16 -3 5 -1 11 5 15 5 3 10 0 10 -7 0 -8 4 -7 11 4 5 9 16 15 23 12 8 -3 17
0 22 7 4 7 3 10 -4 5 -6 -3 -14 -1 -18 5 -5 8 1 10 20 7 20 -4 26 -2 22 8 -3
8 -2 13 2 13 4 -1 9 0 12 1 10 3 45 11 57 12 9 1 10 5 2 14 -7 8 -7 14 1 19 5
3 13 -1 16 -9 5 -12 9 -13 19 -3 7 7 11 15 8 20 -4 7 12 11 31 8 5 -1 6 6 2
15 -5 14 -4 15 9 4 12 -10 15 -9 15 5 0 15 2 16 17 4 11 -10 14 -10 9 -1 -4 7
-2 12 4 12 6 0 8 5 4 13 -5 7 -2 7 10 -2 9 -8 16 -10 15 -5 -4 23 3 33 21 29
15 -3 20 1 18 12 -2 9 3 18 10 20 6 3 12 0 12 -7 0 -6 -5 -8 -12 -4 -7 4 -8 3
-4 -5 8 -13 26 -6 26 10 0 14 26 40 33 33 3 -3 18 1 34 10 15 8 24 15 20 16
-4 0 -3 9 3 21 10 17 14 18 28 7 12 -10 14 -10 8 0 -4 8 -1 12 9 12 12 0 15 5
11 16 -6 15 -4 15 10 3 16 -13 16 -12 4 11 -10 20 -10 23 0 13 11 -10 16 -9
27 5 8 9 12 12 9 5 -4 -6 -1 -15 5 -19 7 -4 9 -3 5 4 -3 6 -2 13 4 17 6 4 8
11 5 16 -4 5 -1 9 5 9 6 0 8 5 4 13 -5 8 -2 8 9 -2 15 -12 17 -11 17 3 0 9 6
16 14 16 7 0 16 9 19 20 3 11 11 20 17 20 9 0 9 -5 -1 -17 -13 -16 -12 -17 3
-4 10 7 16 16 15 20 -5 10 41 50 50 42 4 -3 2 1 -5 10 -10 13 -8 15 11 15 16
-1 21 4 19 18 -3 13 1 17 12 13 11 -4 18 1 22 18 3 13 13 30 22 37 15 11 16
11 7 -2 -5 -9 -2 -8 7 3 11 11 23 15 30 11 9 -6 9 -3 -1 9 -10 13 -10 17 -1
17 7 0 10 7 7 14 -4 10 -1 13 8 9 8 -3 12 -10 8 -16 -3 -5 -1 -7 5 -4 5 4 9
18 8 32 -2 13 1 22 5 19 5 -3 9 0 9 6 0 6 4 9 9 6 5 -3 15 2 22 11 10 12 10
14 2 9 -7 -4 -13 -2 -13 3 0 6 7 11 15 11 8 0 15 7 15 15 0 8 7 15 16 15 8 0
13 4 9 9 -3 5 -1 12 5 16 6 4 8 11 5 16 -3 5 2 6 11 2 12 -4 15 -3 10 5 -4 7
-2 12 4 12 6 0 8 5 5 10 -3 6 -1 10 4 10 6 0 11 -5 11 -12 0 -6 3 -8 6 -5 4 4
1 14 -7 24 -9 11 -10 14 -1 9 8 -4 12 -1 12 10 0 11 6 15 19 11 17 -4 18 -1
11 24 -8 27 -7 28 12 18 13 -7 18 -7 14 -1 -3 6 -1 14 5 17 5 4 8 13 5 21 -3
8 0 14 7 14 15 0 39 49 30 64 -4 6 0 5 9 -2 14 -12 17 -10 20 15 2 17 9 28 18
28 11 0 15 10 13 34 -1 23 2 29 7 20 7 -11 10 -10 16 4 3 9 11 14 18 10 6 -4
5 1 -2 10 -11 12 -11 20 -2 34 11 17 11 17 6 -1 -5 -16 -4 -17 8 -7 8 7 12 19
9 27 -3 9 1 14 12 14 9 0 13 5 10 10 -4 6 -12 7 -18 4 -7 -4 -8 -3 -4 2 5 5
14 9 20 9 7 0 11 9 9 19 -2 13 1 16 10 10 10 -6 10 -4 -1 9 -12 15 -12 17 4
11 12 -5 16 -4 11 4 -3 6 3 16 14 22 11 6 18 15 15 20 -3 4 -2 10 2 13 5 2 3
3 -3 1 -6 -1 -11 4 -11 12 0 7 3 11 7 9 3 -2 12 0 20 6 11 6 12 9 2 9 -7 0
-10 5 -7 10 4 6 10 8 15 5 5 -3 12 0 16 6 4 7 3 10 -2 7 -5 -3 -15 1 -23 9
-12 13 -11 14 7 9 12 -4 23 -2 28 5 4 8 3 9 -4 5 -7 -4 -12 -3 -12 1 0 5 9 14
19 20 12 8 18 20 16 33 -2 11 0 22 5 25 5 3 7 12 4 20 -4 8 1 17 9 21 10 3 14
14 11 30 -2 13 0 24 4 24 5 0 8 11 7 25 -2 17 2 25 12 25 13 0 13 3 3 16 -11
12 -11 15 0 12 7 -2 15 3 18 11 3 10 0 11 -9 5 -11 -6 -11 -4 0 10 13 15 13
19 0 28 -11 8 -11 9 3 4 10 -3 20 -1 23 4 4 6 0 10 -7 10 -10 0 -10 2 -1 8 7
4 13 28 15 54 2 25 6 44 11 41 4 -2 7 1 7 6 0 18 -5 26 -13 23 -5 -1 -6 2 -2
8 3 6 10 8 15 5 4 -3 11 2 14 11 3 8 2 12 -4 9 -6 -3 -7 1 -4 10 5 13 9 13 23
3 13 -10 13 -9 -1 8 -20 23 -23 40 -8 49 5 3 7 0 4 -8 -3 -8 -1 -17 4 -21 10
-6 9 24 -2 42 -4 7 -5 16 -2 19 3 4 6 1 6 -5 0 -7 3 -12 8 -12 4 0 7 17 7 38
-1 21 6 42 15 50 8 7 11 12 5 11 -21 -3 -25 2 -13 15 7 8 18 11 23 8 6 -2 5 1
-2 8 -8 9 -9 19 -2 32 7 12 6 18 -1 18 -6 0 -8 5 -4 12 13 21 14 59 1 51 -9
-5 -9 -3 0 8 10 12 10 18 0 29 -9 10 -9 11 1 6 9 -6 12 1 11 26 -3 56 1 79 11
73 15 -9 12 4 -5 21 -8 9 -15 20 -15 27 0 6 6 3 13 -7 11 -16 13 -15 15 8 1
16 -3 24 -11 22 -6 -1 -9 -1 -4 1 4 3 4 10 1 15 -4 7 -2 8 4 4 7 -4 12 -1 13
6 4 45 3 56 -2 85 -4 20 -2 34 5 38 6 3 1 3 -12 1 -12 -2 -20 0 -16 5 3 5 13
9 22 9 15 1 14 3 -3 17 -14 11 -15 14 -4 10 13 -4 16 1 13 26 -1 18 -3 42 -3
55 -1 15 -5 21 -13 17 -7 -4 -4 1 6 9 18 15 15 20 -9 17 -5 -1 -2 5 7 12 15
12 15 14 0 25 -16 10 -16 11 1 6 13 -5 16 -2 11 10 -3 9 -9 14 -13 11 -4 -2
-8 2 -8 9 0 9 7 12 16 8 13 -4 14 -3 5 9 -5 8 -9 25 -8 39 1 14 -5 33 -14 43
-17 19 -3 24 17 5 10 -11 11 -10 6 5 -4 9 -15 17 -24 18 -10 0 -11 2 -4 6 10
3 10 10 2 25 -9 16 -8 19 3 13 10 -6 10 -5 1 5 -10 11 -9 16 5 26 15 12 14 12
-8 8 -22 -5 -23 -4 -7 6 11 7 15 16 9 23 -4 7 -8 26 -7 42 1 17 -3 33 -8 36
-5 4 -5 14 2 26 5 11 7 24 3 28 -7 7 -8 12 -11 41 0 8 -5 12 -11 9 -17 -11
-11 7 8 22 13 10 13 13 2 11 -9 -2 -15 5 -15 17 0 11 -4 26 -8 33 -5 7 -4 12
3 12 7 0 8 6 2 16 -5 9 -8 26 -5 38 3 20 3 20 -5 1 -5 -11 -7 -25 -5 -31 2 -7
0 -15 -5 -18 -5 -3 -7 12 -5 35 3 32 1 39 -9 33 -10 -6 -10 -4 1 9 10 13 10
17 1 17 -10 0 -10 3 0 15 7 9 10 19 6 22 -4 4 -11 1 -16 -7 -6 -8 -10 -10 -11
-5 0 6 -3 33 -5 60 -3 28 -10 55 -16 60 -7 7 -9 6 -4 -2 3 -6 2 -14 -3 -18 -6
-3 -8 3 -6 15 2 11 -2 20 -8 20 -7 0 -6 4 3 10 9 6 10 10 3 10 -7 0 -10 9 -8
21 3 15 0 19 -10 15 -10 -3 -15 1 -15 12 0 10 -6 24 -12 31 -10 11 -10 13 0 7
19 -11 15 20 -5 35 -17 13 -17 13 -3 -6 14 -19 14 -19 -3 -6 -13 10 -15 17 -6
27 9 11 8 14 -1 14 -7 0 -10 7 -7 15 4 8 1 17 -5 21 -6 4 -8 3 -4 -4 3 -6 2
-13 -3 -16 -5 -3 -8 7 -7 23 1 17 -2 28 -6 25 -4 -3 -8 0 -8 6 0 6 -6 8 -12 5
-7 -4 -4 1 7 10 20 17 20 17 -1 11 -24 -7 -42 18 -22 30 7 5 8 2 3 -6 -6 -9
-4 -11 5 -5 9 5 5 14 -15 32 -15 14 -24 31 -21 39 4 10 0 14 -12 12 -11 -2
-16 3 -15 15 1 15 -4 18 -23 14 -20 -3 -22 -2 -13 9 9 11 8 14 0 14 -7 0 -9 5
-6 10 4 6 3 10 -2 9 -11 -3 -83 30 -83 37 0 3 8 3 18 -1 12 -4 14 -3 7 4 -6 6
-23 12 -37 13 -15 1 -26 5 -26 8 2 18 -3 32 -9 27 -3 -4 -18 6 -33 21 -14 15
-35 34 -46 42 -18 14 -18 14 -4 -6 9 -12 4 -10 -11 5 -27 28 -43 34 -73 33
-18 -1 -18 -1 0 13 18 13 17 14 -8 9 -20 -3 -31 2 -44 18 -9 13 -14 16 -11 7
3 -9 -1 -16 -9 -16 -8 0 -13 5 -11 12 4 9 -17 15 -71 18 -7 0 -10 7 -7 15 4
10 0 13 -15 9 -11 -3 -20 -2 -20 2 0 4 -16 6 -35 6 -19 -1 -40 3 -47 8 -9 6
-8 7 4 3 10 -3 20 -2 22 3 3 4 -16 8 -42 8 -26 1 -48 6 -50 12 -3 8 -8 6 -16
-4 -11 -16 -13 -15 -27 1 -7 10 -9 15 -2 11 6 -4 15 -2 19 5 4 7 4 10 -1 6 -4
-4 -15 -2 -23 5 -13 9 -14 9 -8 0 4 -7 2 -13 -3 -13 -6 0 -11 4 -11 8 0 11
-31 9 -49 -3 -10 -5 -12 -4 -7 3 5 9 -4 11 -33 8 -36 -3 -39 -2 -36 18 4 19 3
20 -9 4 -15 -20 -32 -23 -41 -8 -3 6 1 7 9 4 9 -3 16 -2 16 2 0 8 -880 13
-995 6z m-885 -273 c0 -5 -4 -8 -9 -4 -5 3 -17 -2 -25 -11 -9 -8 -16 -11 -16
-5 0 10 28 30 43 31 4 0 7 -5 7 -11z m-373 -214 c0 -8 -4 -12 -9 -9 -5 3 -6
10 -3 15 9 13 12 11 12 -6z m-644 -600 c-3 -9 -8 -14 -10 -11 -3 3 -2 9 2 15
9 16 15 13 8 -4z m4095 -120 c1 -14 -2 -25 -6 -25 -7 0 -8 31 -3 48 3 8 7 -2
9 -23z m-4461 -447 c-3 -8 -6 -5 -6 6 -1 11 2 17 5 13 3 -3 4 -12 1 -19z m-22
-58 c3 -5 1 -10 -4 -10 -6 0 -11 5 -11 10 0 6 2 10 4 10 3 0 8 -4 11 -10z
m-95 -244 c0 -2 -7 -7 -16 -10 -8 -3 -12 -2 -9 4 6 10 25 14 25 6z m-30 -56
c-6 -11 -13 -20 -16 -20 -2 0 0 9 6 20 6 11 13 20 16 20 2 0 0 -9 -6 -20z
m4605 -269 c3 -5 2 -12 -3 -15 -5 -3 -9 1 -9 9 0 17 3 19 12 6z m-180 -668
c-2 -10 -4 -19 -4 -21 -1 -2 -6 0 -11 3 -8 5 -7 11 1 21 15 18 18 18 14 -3z
m-68 -159 c-3 -3 -12 -4 -19 -1 -8 3 -5 6 6 6 11 1 17 -2 13 -5z m-4489 -249
c-3 -3 -9 2 -12 12 -6 14 -5 15 5 6 7 -7 10 -15 7 -18z m39 -340 c0 -8 -4 -15
-9 -15 -10 0 -11 14 -1 23 9 10 10 9 10 -8z m28 -93 c-3 -3 -11 0 -18 7 -9 10
-8 11 6 5 10 -3 15 -9 12 -12z m2 -27 c0 -8 -4 -12 -9 -9 -5 3 -6 10 -3 15 9
13 12 11 12 -6z m63 -155 c0 -5 -5 -10 -11 -10 -5 0 -7 5 -4 10 3 6 8 10 11
10 2 0 4 -4 4 -10z m3450 -220 c0 -5 -5 -10 -11 -10 -5 0 -7 5 -4 10 3 6 8 10
11 10 2 0 4 -4 4 -10z m-2795 -448 c-3 -3 -11 0 -18 7 -9 10 -8 11 6 5 10 -3
15 -9 12 -12z m1639 -58 c3 -8 2 -12 -4 -9 -6 3 -10 10 -10 16 0 14 7 11 14
-7z m-1329 -24 c3 -5 1 -10 -4 -10 -6 0 -11 5 -11 10 0 6 2 10 4 10 3 0 8 -4
11 -10z m79 -12 c-3 -4 -11 -5 -19 -1 -21 7 -19 12 4 10 11 0 18 -5 15 -9z
m823 -21 c0 -8 -6 -14 -14 -14 -9 0 -10 4 -2 14 6 7 12 13 14 13 1 0 2 -6 2
-13z"/>
<path d="M2250 4839 c0 -5 -4 -8 -8 -5 -4 2 -14 0 -22 -5 -11 -7 -9 -8 9 -6
21 3 45 27 27 27 -3 0 -6 -5 -6 -11z"/>
<path d="M233 2685 c0 -8 4 -15 9 -15 4 0 8 4 8 9 0 6 -4 12 -8 15 -5 3 -9 -1
-9 -9z"/>
<path d="M2895 289 c-4 -6 -4 -13 -1 -16 3 -4 6 -1 6 6 0 7 5 9 12 5 7 -4 8
-3 4 4 -9 15 -13 15 -21 1z"/>
<path d="M2500 201 c0 -10 19 -25 25 -20 1 2 -3 10 -11 17 -8 7 -14 8 -14 3z"/>
<path d="M1496 168 c3 -5 10 -6 15 -3 13 9 11 12 -6 12 -8 0 -12 -4 -9 -9z"/>
<path d="M2326 158 c3 -5 10 -6 15 -3 13 9 11 12 -6 12 -8 0 -12 -4 -9 -9z"/>
</g>
</svg>
